PathFileType	4	(X/Y/Z)	T1_P1_NoVision_Movement_3_0-681.trc
DataRate	CameraRate	NumFrames	NumMarkers	Units	OrigDataRate	OrigDataStartFrame	OrigNumFrames
60	60	4	27	m	60	255	681
Frame#	Time	RHip			RKnee			RAnkle			RBigToe			RSmallToe			RHeel			LHip			LKnee			LAnkle			LBigToe			LSmallToe			LHeel			Neck			Head			Nose			RShoulder			RElbow			RWrist			RThumb			RIndex			RPinky			LShoulder			LElbow			LWrist			LThumb			LIndex			LPinky		
		X1	Y1	Z1	X2	Y2	Z2	X3	Y3	Z3	X4	Y4	Z4	X5	Y5	Z5	X6	Y6	Z6	X7	Y7	Z7	X8	Y8	Z8	X9	Y9	Z9	X10	Y10	Z10	X11	Y11	Z11	X12	Y12	Z12	X13	Y13	Z13	X14	Y14	Z14	X15	Y15	Z15	X16	Y16	Z16	X17	Y17	Z17	X18	Y18	Z18	X19	Y19	Z19	X20	Y20	Z20	X21	Y21	Z21	X22	Y22	Z22	X23	Y23	Z23	X24	Y24	Z24	X25	Y25	Z25	X26	Y26	Z26	X27	Y27	Z27
256	4.266666666666667	-76.61628540561087	3855.5005516487254	-591.2514513650038	265.1206952955573	3989.1660195976033	-552.6992266804137	624.8615607317867	4148.117233297261	-524.0068188244118	696.8200131545486	4096.7079111271305	-480.22078681442815	700.8406217255256	4089.540041780598	-550.2342159443043	651.800312469473	4162.258207154947	-525.1197600736906	-117.05282425805659	3944.699001111528	-400.0122575339141	220.19228886864096	4031.815526096021	-375.93004715763016	578.6836279545188	4198.625472504219	-382.91117259893434	669.0992251562957	4158.396468173299	-344.29154183192543	639.3545400831632	4218.046172073767	-332.8272528230787	605.1272305211509	4252.801276630549	-422.5242986175404	-695.2542529665325	3751.4920080027887	-534.329218149943	-921.7388379897444	3559.0325933022646	-457.72361597639116	-789.3628487399178	3587.514225527889	-436.78462630600626	-583.7013595848833	3711.688785406609	-664.9450407949221	-321.9424736973871	3623.395780905356	-675.3688321145077	-494.60309588691507	3524.4620043461673	-510.886281319117	-578.0768665014173	3472.0740850944985	-430.3973935192964	-581.480869273709	3450.3415217385354	-407.7000497545872	-548.3107797283925	3451.160612567623	-412.16785381856096	-641.967775775212	3917.1641517872413	-433.3711325913446	-405.76271229576884	4007.0346658126246	-344.49257604516475	-149.80899779938525	4025.8904361820164	-270.068463653465	-16.528937795519916	4046.4299503066554	-293.4052076560742	9.251323063189993	4024.1249934444363	-246.80004269709391	-9.740145616359577	4021.8722015516655	-233.6304157127651
257	4.283333333333333	-82.49070875136313	3879.887539690181	-596.8189321023659	266.7394292870792	4018.202073434727	-559.3235680965535	624.9054206093675	4147.880668867827	-524.0081166614932	702.9864425285076	4099.867511838355	-479.4470390142302	695.5037055544129	4067.5353866030023	-534.361026673151	651.7580855320183	4161.627620706246	-524.9946163953605	-112.78974577538585	3943.109810013531	-393.1255555144555	220.16345206241553	4031.8210413063616	-375.8647576160398	577.5673331292813	4194.770205321046	-383.07255460328525	680.7162298979124	4191.865056698317	-351.18211499365776	639.3878519065785	4218.2353200285825	-332.88350312479804	604.9178440749952	4252.435233285619	-422.4884108206243	-695.5649150388414	3751.479711527399	-528.3480112062804	-921.5083496513108	3557.5539678344408	-451.84401249113813	-789.2212955190083	3587.3670252177967	-436.74525026991466	-583.7881990156718	3711.7810900466748	-665.043007451963	-317.30157010694427	3626.380149714883	-676.9174966431553	-494.40784378032146	3524.3334273573296	-510.7045470041704	-571.2042490443155	3451.3844314797198	-425.6239801775546	-571.4099632901504	3452.802774618687	-403.26503912277167	-546.5432772148673	3436.3975388444364	-399.45326649521695	-641.9530880367497	3917.5819275133804	-433.36683635903563	-406.7640542487296	4026.623781161258	-358.2376748070725	-149.82853143021893	4025.8758790947127	-270.0817658308725	-16.48171066325457	4046.0826801059707	-293.2802877758717	9.161701513576986	4023.9811999869507	-246.8256080877291	-9.770176997343397	4021.870745614567	-233.70129698119692
258	4.3	-76.63139665069787	3855.9481815682334	-591.4535421066287	267.0331554269292	4009.9662698704283	-562.1470606335187	624.8001645880001	4147.934834784232	-524.0006661837814	696.7609046892816	4096.582007468616	-480.2233779248361	695.6478309973597	4057.855485757732	-543.0448896335619	651.7375190176241	4162.0639587338155	-525.1402926603744	-112.30444915274906	3992.9247477990652	-419.772757116957	220.1836225747933	4031.7765063187876	-375.95712197803584	577.4273496820233	4194.632730225809	-383.0267091581355	663.1431170982517	4154.669476905176	-344.7949819535547	639.1633865824613	4217.693021810469	-332.6667936137483	604.8495046752544	4252.472358287767	-422.517210523071	-695.5514645587992	3751.2209344468497	-528.2459411761813	-921.5492671895205	3557.6106715109645	-451.93358118429154	-789.3719411123617	3587.429460317174	-436.7359554337661	-583.3853537028725	3711.444813031334	-670.4455537702574	-322.01306289424997	3623.5327149806985	-675.5829476116456	-490.04415095236266	3525.4130198840467	-510.1891426361998	-572.0403470116113	3451.5688048851043	-425.8310543232524	-571.722296869529	3431.215991916811	-403.13588400140327	-546.9712683769739	3435.879337472229	-399.22257853196436	-641.9743937857106	3917.5336701899337	-433.25366601754047	-406.56752436571156	4029.3057778832676	-364.74217441547614	-149.9069754444644	4025.9379529869507	-270.06861793197294	-17.660706719781533	4054.232586264015	-284.80924868862974	7.802954598146294	4006.2246248324063	-235.1322179703305	-9.92620709416671	4021.260047461543	-233.41593626777725
259	4.316666666666666	-82.60212095209475	3879.991330007853	-596.8230245478193	265.0126449855867	3989.6338567094854	-552.8006627869639	624.9162149503695	4148.378446650004	-524.0860078787673	696.8878565049316	4096.777024594923	-480.1597475754177	701.0989149132516	4089.9387196046173	-550.2093936753381	656.230599840925	4193.256691394131	-531.9218046264007	-118.58495248208132	3970.100559625243	-398.96801635666645	214.27850675687526	4029.2722889270617	-376.556278547637	577.5096965069027	4194.704735638625	-382.92787587927586	670.4747771091114	4159.156234471642	-346.69301713671246	634.1428422095237	4194.06106766592	-317.6850400334654	600.3342872629937	4231.333641476486	-408.5593199078575	-695.2857667762828	3751.6910171582963	-534.4663515292534	-921.5290031993511	3557.6284677165345	-451.9279932594358	-789.358020808406	3587.3888539984755	-436.683227437107	-583.6275742287295	3711.1922125121787	-664.683827051429	-322.1163661154835	3623.650158039753	-675.6108966861868	-494.52098872572606	3524.4012759073503	-510.7160019288773	-565.463694656243	3455.635373119166	-431.0370900707717	-569.8128006389662	3430.7540014703313	-402.1327635872169	-541.0155915031651	3438.600322017318	-403.64545227638763	-641.9581315140464	3917.529890257631	-433.2051081736288	-406.88888221202234	4026.8250907782067	-358.2677021436566	-149.9588419714751	4026.215073467505	-270.1760012834635	-16.654315168113676	4074.442388856171	-298.1767778544953	9.158015341863955	4024.5746128023284	-246.88068653229521	-10.032994896355815	4021.8399623084	-233.61482818778492
